<svg width="32" height="32" viewBox="0 0 32 32" fill="none" xmlns="http://www.w3.org/2000/svg">
<path d="M11.0003 5.99935C11.0003 4.1584 12.4927 2.66602 14.3337 2.66602C16.1746 2.66602 17.667 4.1584 17.667 5.99935V7.99935H19.0003C20.8641 7.99935 21.796 7.99935 22.5311 8.30383C23.5112 8.70981 24.2899 9.4885 24.6958 10.4686C25.0003 11.2037 25.0003 12.1356 25.0003 13.9993H27.0003C28.8413 13.9993 30.3337 15.4917 30.3337 17.3327C30.3337 19.1736 28.8413 20.666 27.0003 20.666H25.0003V22.9327C25.0003 25.1729 25.0003 26.293 24.5644 27.1486C24.1809 27.9013 23.5689 28.5132 22.8163 28.8967C21.9606 29.3327 20.8405 29.3327 18.6003 29.3327H17.667V26.9993C17.667 25.3425 16.3238 23.9993 14.667 23.9993C13.0101 23.9993 11.667 25.3425 11.667 26.9993V29.3327H10.067C7.82678 29.3327 6.70668 29.3327 5.85103 28.8967C5.09838 28.5132 4.48646 27.9013 4.10297 27.1486C3.66699 26.293 3.66699 25.1729 3.66699 22.9327V20.666H5.66699C7.50794 20.666 9.00033 19.1736 9.00033 17.3327C9.00033 15.4917 7.50794 13.9993 5.66699 13.9993H3.66699C3.66699 12.1356 3.66699 11.2037 3.97147 10.4686C4.37745 9.4885 5.15615 8.70981 6.13626 8.30383C6.87134 7.99935 7.80323 7.99935 9.66699 7.99935H11.0003V5.99935Z" stroke="white" stroke-width="2" stroke-linecap="round" stroke-linejoin="round"/>
</svg>
